<svg xmlns="http://www.w3.org/2000/svg" xmlns:xlink="http://www.w3.org/1999/xlink" width="500" zoomAndPan="magnify" viewBox="0 0 375 374.999991" height="500" preserveAspectRatio="xMidYMid meet" version="1.0"><defs><g/></defs><g fill="#2660a4" fill-opacity="1"><g transform="translate(139.853078, 318.481607)"><g><path d="M 30.59375 -231.796875 C 30.59375 -259.429688 42.425781 -273.25 66.09375 -273.25 C 74.863281 -273.25 82.460938 -272.179688 88.890625 -270.046875 L 88.890625 -248.171875 C 84.804688 -248.773438 80.367188 -249.078125 75.578125 -249.078125 C 70.785156 -249.078125 67.316406 -247.773438 65.171875 -245.171875 C 63.035156 -242.578125 61.96875 -238.523438 61.96875 -233.015625 L 61.96875 -220.625 L 88.890625 -220.625 L 88.890625 -197.515625 L 61.96875 -197.515625 L 61.96875 0 L 30.59375 0 L 30.59375 -197.515625 L 10.859375 -197.515625 L 10.859375 -220.625 L 30.59375 -220.625 Z M 30.59375 -231.796875 "/></g></g></g></svg>