<svg xmlns="http://www.w3.org/2000/svg" xmlns:xlink="http://www.w3.org/1999/xlink" width="500" zoomAndPan="magnify" viewBox="0 0 375 374.999991" height="500" preserveAspectRatio="xMidYMid meet" version="1.0"><defs><g/><clipPath id="a7bda84f47"><path d="M 66 124 L 195 124 L 195 262.066406 L 66 262.066406 Z M 66 124 " clip-rule="nonzero"/></clipPath><clipPath id="a03085bcbd"><path d="M 152 228 L 195 228 L 195 262.066406 L 152 262.066406 Z M 152 228 " clip-rule="nonzero"/></clipPath><clipPath id="8f5edbeaec"><path d="M 52.5 112.816406 L 92 112.816406 L 92 151 L 52.5 151 Z M 52.5 112.816406 " clip-rule="nonzero"/></clipPath></defs><g clip-path="url(#a7bda84f47)"><path fill="#2660a4" d="M 159.382812 262.050781 L 195 228.105469 L 195 124.621094 L 66.050781 124.621094 L 66.050781 262.050781 Z M 159.382812 262.050781 " fill-opacity="1" fill-rule="evenodd"/></g><g clip-path="url(#a03085bcbd)"><path fill="#05abc4" d="M 195 228.105469 C 195 228.105469 161.363281 237.003906 153.28125 228.105469 C 151.957031 240.679688 153.675781 252.113281 159.382812 262.050781 Z M 195 228.105469 " fill-opacity="1" fill-rule="evenodd"/></g><g clip-path="url(#8f5edbeaec)"><path fill="#05abc4" d="M 82.671875 112.839844 L 91.140625 121.617188 L 60.96875 150.683594 L 52.5 141.90625 Z M 82.671875 112.839844 " fill-opacity="0.6784" fill-rule="evenodd"/></g><g fill="#ffffff" fill-opacity="1"><g transform="translate(84.00394, 223.499985)"><g><path d="M 8.296875 -62.875 C 8.296875 -70.375 11.507812 -74.125 17.9375 -74.125 C 20.3125 -74.125 22.367188 -73.832031 24.109375 -73.25 L 24.109375 -67.3125 C 23.003906 -67.476562 21.800781 -67.5625 20.5 -67.5625 C 19.195312 -67.5625 18.253906 -67.207031 17.671875 -66.5 C 17.097656 -65.800781 16.8125 -64.703125 16.8125 -63.203125 L 16.8125 -59.84375 L 24.109375 -59.84375 L 24.109375 -53.578125 L 16.8125 -53.578125 L 16.8125 0 L 8.296875 0 L 8.296875 -53.578125 L 2.953125 -53.578125 L 2.953125 -59.84375 L 8.296875 -59.84375 Z M 8.296875 -62.875 "/></g></g></g><g fill="#ffffff" fill-opacity="1"><g transform="translate(108.159738, 223.499985)"><g><path d="M 6.140625 -73.828125 L 14.65625 -73.828125 L 14.65625 0 L 6.140625 0 Z M 6.140625 -73.828125 "/></g></g></g><g fill="#ffffff" fill-opacity="1"><g transform="translate(127.252292, 223.499985)"><g><path d="M 5.140625 -42.953125 C 5.140625 -50.816406 6.550781 -56.28125 9.375 -59.34375 C 11.59375 -61.78125 14.859375 -63 19.171875 -63 C 25.429688 -63 29.363281 -60.300781 30.96875 -54.90625 C 31.851562 -51.863281 32.296875 -47.753906 32.296875 -42.578125 L 32.296875 -30.84375 L 13.703125 -30.84375 L 13.703125 -18.421875 C 13.703125 -13.023438 14.128906 -9.660156 14.984375 -8.328125 C 15.835938 -7.003906 17.191406 -6.34375 19.046875 -6.34375 C 20.898438 -6.34375 22.140625 -7.117188 22.765625 -8.671875 C 23.390625 -10.222656 23.710938 -11.90625 23.734375 -13.71875 C 23.765625 -15.53125 23.78125 -17.054688 23.78125 -18.296875 L 23.78125 -23.328125 L 32.125 -23.328125 L 32.125 -20.671875 C 32.125 -14.054688 31.660156 -9.421875 30.734375 -6.765625 C 29.804688 -4.109375 28.398438 -2.191406 26.515625 -1.015625 C 24.640625 0.160156 22.3125 0.75 19.53125 0.75 C 16.75 0.75 14.519531 0.394531 12.84375 -0.3125 C 11.164062 -1.019531 9.835938 -1.953125 8.859375 -3.109375 C 7.878906 -4.273438 7.015625 -6.128906 6.265625 -8.671875 C 5.515625 -11.222656 5.140625 -15.316406 5.140625 -20.953125 Z M 23.78125 -44.53125 C 23.78125 -48.957031 23.617188 -51.625 23.296875 -52.53125 C 22.984375 -53.445312 22.578125 -54.25 22.078125 -54.9375 C 21.578125 -55.632812 20.675781 -55.984375 19.375 -55.984375 C 16.882812 -55.984375 15.304688 -54.9375 14.640625 -52.84375 C 13.984375 -50.757812 13.65625 -47.894531 13.65625 -44.25 L 13.65625 -36.609375 L 23.78125 -36.609375 Z M 23.78125 -44.53125 "/></g></g></g><g fill="#ffffff" fill-opacity="1"><g transform="translate(162.61363, 223.499985)"><g><path d="M 1.78125 -62.25 L 9.296875 -62.25 L 15.859375 -42.375 L 21.671875 -62.25 L 29.390625 -62.25 L 19.34375 -31.796875 L 29.796875 0 L 21.875 0 L 15.0625 -21.171875 L 8.796875 0 L 1.078125 0 L 11.53125 -32.078125 Z M 1.78125 -62.25 "/></g></g></g><g fill="#2660a4" fill-opacity="1"><g transform="translate(191.74612, 223.499985)"><g><path d="M 14.609375 -55.65625 C 15.160156 -57.675781 16.367188 -59.410156 18.234375 -60.859375 C 20.109375 -62.316406 22.4375 -63.046875 25.21875 -63.046875 C 28 -63.046875 30.253906 -61.914062 31.984375 -59.65625 C 33.710938 -57.40625 34.578125 -54.066406 34.578125 -49.640625 L 34.578125 0 L 26.0625 0 L 26.0625 -49.59375 C 26.0625 -51.695312 25.578125 -53.273438 24.609375 -54.328125 C 23.640625 -55.378906 22.296875 -55.90625 20.578125 -55.90625 C 18.867188 -55.90625 17.445312 -55.3125 16.3125 -54.125 C 15.175781 -52.9375 14.609375 -51.148438 14.609375 -48.765625 L 14.609375 0 L 6.09375 0 L 6.09375 -62.25 L 14.609375 -62.25 Z M 14.609375 -55.65625 "/></g></g></g><g fill="#2660a4" fill-opacity="1"><g transform="translate(230.303105, 223.499985)"><g><path d="M 5.140625 -42.625 C 5.140625 -52.726562 7.46875 -59.023438 12.125 -61.515625 C 14 -62.503906 16.179688 -63 18.671875 -63 C 25.179688 -63 29.332031 -60.382812 31.125 -55.15625 C 32.226562 -51.863281 32.78125 -47.6875 32.78125 -42.625 L 32.78125 -20.59375 C 32.78125 -11.84375 31.601562 -6.097656 29.25 -3.359375 C 26.90625 -0.617188 23.503906 0.75 19.046875 0.75 C 12.546875 0.75 8.410156 -2.015625 6.640625 -7.546875 C 5.640625 -10.734375 5.140625 -15.082031 5.140625 -20.59375 Z M 24.234375 -44.328125 C 24.234375 -50.242188 23.390625 -53.84375 21.703125 -55.125 C 21.015625 -55.644531 20.117188 -55.90625 19.015625 -55.90625 C 16.765625 -55.90625 15.316406 -54.894531 14.671875 -52.875 C 14.023438 -50.851562 13.703125 -48.003906 13.703125 -44.328125 L 13.703125 -18.21875 C 13.703125 -12.101562 14.554688 -8.410156 16.265625 -7.140625 C 16.960938 -6.609375 17.820312 -6.34375 18.84375 -6.34375 C 18.894531 -6.34375 18.953125 -6.34375 19.015625 -6.34375 C 21.191406 -6.34375 22.601562 -7.375 23.25 -9.4375 C 23.90625 -11.5 24.234375 -14.425781 24.234375 -18.21875 Z M 24.234375 -44.328125 "/></g></g></g><g fill="#2660a4" fill-opacity="1"><g transform="translate(266.535979, 223.499985)"><g><path d="M 7.59375 -73.046875 L 16.109375 -73.046875 L 16.109375 -61.765625 L 22.828125 -61.765625 L 22.828125 -55.453125 L 16.109375 -55.453125 L 16.109375 -10 C 16.109375 -8.394531 16.476562 -7.390625 17.21875 -6.984375 C 17.96875 -6.585938 19.863281 -6.390625 22.90625 -6.390625 L 22.90625 0.375 L 17.0625 0.375 C 13.132812 0.375 10.570312 -0.335938 9.375 -1.765625 C 8.1875 -3.191406 7.59375 -5.6875 7.59375 -9.25 L 7.59375 -55.453125 L 1.90625 -55.453125 L 1.90625 -61.765625 L 7.59375 -61.765625 Z M 7.59375 -73.046875 "/></g></g></g><g fill="#2660a4" fill-opacity="1"><g transform="translate(290.23525, 223.499985)"><g><path d="M 5.140625 -42.953125 C 5.140625 -50.816406 6.550781 -56.28125 9.375 -59.34375 C 11.59375 -61.78125 14.859375 -63 19.171875 -63 C 25.429688 -63 29.363281 -60.300781 30.96875 -54.90625 C 31.851562 -51.863281 32.296875 -47.753906 32.296875 -42.578125 L 32.296875 -30.84375 L 13.703125 -30.84375 L 13.703125 -18.421875 C 13.703125 -13.023438 14.128906 -9.660156 14.984375 -8.328125 C 15.835938 -7.003906 17.191406 -6.34375 19.046875 -6.34375 C 20.898438 -6.34375 22.140625 -7.117188 22.765625 -8.671875 C 23.390625 -10.222656 23.710938 -11.90625 23.734375 -13.71875 C 23.765625 -15.53125 23.78125 -17.054688 23.78125 -18.296875 L 23.78125 -23.328125 L 32.125 -23.328125 L 32.125 -20.671875 C 32.125 -14.054688 31.660156 -9.421875 30.734375 -6.765625 C 29.804688 -4.109375 28.398438 -2.191406 26.515625 -1.015625 C 24.640625 0.160156 22.3125 0.75 19.53125 0.75 C 16.75 0.75 14.519531 0.394531 12.84375 -0.3125 C 11.164062 -1.019531 9.835938 -1.953125 8.859375 -3.109375 C 7.878906 -4.273438 7.015625 -6.128906 6.265625 -8.671875 C 5.515625 -11.222656 5.140625 -15.316406 5.140625 -20.953125 Z M 23.78125 -44.53125 C 23.78125 -48.957031 23.617188 -51.625 23.296875 -52.53125 C 22.984375 -53.445312 22.578125 -54.25 22.078125 -54.9375 C 21.578125 -55.632812 20.675781 -55.984375 19.375 -55.984375 C 16.882812 -55.984375 15.304688 -54.9375 14.640625 -52.84375 C 13.984375 -50.757812 13.65625 -47.894531 13.65625 -44.25 L 13.65625 -36.609375 L 23.78125 -36.609375 Z M 23.78125 -44.53125 "/></g></g></g></svg>